<?xml version="1.0" encoding="iso-8859-1"?>
<!-- Generator: Adobe Illustrator 19.0.0, SVG Export Plug-In . SVG Version: 6.00 Build 0)  -->
<svg version="1.1" id="Layer_1" xmlns="http://www.w3.org/2000/svg" xmlns:xlink="http://www.w3.org/1999/xlink" x="0px" y="0px"
	 viewBox="0 0 445 445" style="enable-background:new 0 0 445 445;" xml:space="preserve">
<g>
	<path d="M184.345,371.224c49.999,0.002,96.944-19.415,132.205-54.675c72.908-72.909,72.908-191.54,0-264.449L52.1,316.55
		C87.354,351.802,134.312,371.219,184.345,371.224z M269.839,162.313h40v30h-40V162.313z M257.396,236.184l28.284,28.284
		l-21.213,21.213l-28.284-28.284L257.396,236.184z M162.313,269.839h30v40h-30V269.839z"/>
	<path d="M368.65,0l-30.887,30.887c84.605,84.606,84.605,222.27,0,306.875c-40.924,40.924-95.408,63.462-153.418,63.462
		c-58.047-0.005-112.539-22.543-153.458-63.461L0,368.65c101.8,101.8,266.85,101.8,368.65,0C470.45,266.85,470.45,101.8,368.65,0z"
		/>
</g>
<g>
</g>
<g>
</g>
<g>
</g>
<g>
</g>
<g>
</g>
<g>
</g>
<g>
</g>
<g>
</g>
<g>
</g>
<g>
</g>
<g>
</g>
<g>
</g>
<g>
</g>
<g>
</g>
<g>
</g>
</svg>
