<?xml version="1.0" encoding="iso-8859-1"?>
<!-- Generator: Adobe Illustrator 19.0.0, SVG Export Plug-In . SVG Version: 6.00 Build 0)  -->
<svg version="1.1" id="Layer_1" xmlns="http://www.w3.org/2000/svg" xmlns:xlink="http://www.w3.org/1999/xlink" x="0px" y="0px"
	 viewBox="0 0 494.147 494.147" style="enable-background:new 0 0 494.147 494.147;" xml:space="preserve">
<path d="M455.84,172.391l-84.02-84.02c-13.278-13.278-34.805-13.278-48.083,0c-13.278,13.278-13.278,34.805,0,48.083l67.882,67.882
	l-7.071,7.071L197.847,24.707c-13.278-13.278-34.805-13.278-48.083,0c-13.278,13.278-13.278,34.805,0,48.083l123.062,123.062
	l-7.071,7.071L119.257,56.425c-13.278-13.278-34.805-13.278-48.083,0c-13.278,13.278-13.278,34.805,0,48.083l146.497,146.497
	l-7.071,7.071L87.538,135.015c-13.278-13.278-34.805-13.278-48.083,0s-13.278,34.806,0,48.083L162.516,306.16l-7.071,7.071
	l-97.404-97.404c-13.278-13.278-34.805-13.278-48.083,0c-13.278,13.278-13.278,34.805,0,48.083l177.181,177.181
	c51.077,51.077,134.185,51.077,185.262,0l83.439-83.439C506.917,306.576,506.916,223.468,455.84,172.391z"/>
<g>
</g>
<g>
</g>
<g>
</g>
<g>
</g>
<g>
</g>
<g>
</g>
<g>
</g>
<g>
</g>
<g>
</g>
<g>
</g>
<g>
</g>
<g>
</g>
<g>
</g>
<g>
</g>
<g>
</g>
</svg>
